<svg version="1.2" xmlns="http://www.w3.org/2000/svg" viewBox="58.25 92.83 164.82 22.82">
	<style>
		.s0 { fill: #1d1d1b } 
		.s1 { fill: none;stroke: #1d1d1b;stroke-linecap: round;stroke-linejoin: round } 
	</style>
	<g id="Layer 1">
		<path class="s0" d="m64.46 111.65v-16.2h-6.18v-2.37h13.71v2.37h-4.68v15.9c0 1.17 0.39 1.68 1.23 1.68 0.42 0 0.69-0.03 1.2-0.18v2.31c-0.57 0.21-1.14 0.3-1.89 0.3-2.19 0-3.39-1.29-3.39-3.81z"/>
		<path class="s0" d="m84.57 112.13l-1.83-4.74q-1.43 0.32-3.09 0.33-0.44 0.01-0.93-0.03v7.53h-2.82v-16.17l2.82 0.51v5.79q0.54 0.04 0.99 0.03c4.29 0 6.66-2.22 6.66-5.25 0-3.03-1.98-4.92-5.28-4.92-2.16 0-4.29 0.81-5.37 2.25l-1.44-1.89c1.47-1.74 4.02-2.73 6.84-2.73 4.89 0 8.16 3.06 8.16 7.29 0 2.73-1.44 5.04-3.99 6.36l1.8 4.68c0.51 1.32 0.99 1.83 1.95 1.83q0.55 0 1.23-0.18v2.25c-0.72 0.27-1.41 0.39-1.98 0.39-1.92 0-2.85-1.05-3.72-3.33z"/>
		<path class="s0" d="m93.23 108.02v-12.57h-1.68v-2.37c0 0 3.17-0.49 3.96 0.17 0.79 0.66 0.6 14.68 0.6 14.68 0 3.6 1.29 5.16 3.96 5.16 2.82 0 3.56-1.56 3.56-5.58 0 0 0.55-11.4 0-12.06-0.55-0.66-1.68 0-1.68 0v-2.37h4.56v18.54c0 0.93 0.18 1.44 0.78 1.44 0.33 0 0.57-0.06 0.9-0.18v2.22q-0.68 0.36-1.68 0.36c-1.53 0-2.25-1.02-2.37-2.58-1.11 1.74-1.91 2.58-4.43 2.58-4.56 0-6.48-2.55-6.48-7.44z"/>
		<path class="s0" d="m110.72 109.85c0-1.14 0.33-2.28 0.96-3.12l2.4 0.93c-0.48 0.69-0.66 1.32-0.66 2.13 0 2.13 1.83 3.39 4.38 3.39 2.55 0 4.32-1.29 4.32-3.45 0-1.8-0.9-2.73-2.94-3.72l-4.08-1.98c-2.64-1.29-3.96-3.09-3.96-5.7 0-3.39 2.85-5.49 6.66-5.49 3.81 0 6.48 2.52 6.48 5.4 0 1.08-0.27 1.98-0.87 2.82l-2.43-0.81c0.45-0.63 0.66-1.2 0.66-1.98 0-1.89-1.68-3.15-3.81-3.15-2.13 0-3.78 1.23-3.78 3.12 0 1.62 0.84 2.58 2.37 3.3l3.87 1.86c3.42 1.65 4.74 3.36 4.74 6.24 0 3.42-2.94 5.82-7.2 5.82-4.47 0-7.11-2.46-7.11-5.61z"/>
		<path class="s0" d="m130.37 111.65v-16.2h-3.93v-2.37h12.96v2.37h-6.18v15.9c0 1.17 0.4 1.41 1.24 1.37 1.15-0.05 3.34-1.9 3.85-2.05v2.87c-0.57 0.21-2.31 1.92-4.56 1.92-2.25 0-3.39-1.29-3.38-3.81z"/>
		<path class="s0" d="m162.95 112.85h1.68v-17.4h-1.68v-2.37h6.57v2.37h-2.01v17.4c0 0 5.27 0.13 5.99-0.35 0.72-0.48 0.18-3 0.18-3h2.28c0 0 0.94 4.6 0 5.37-1.16 1.07-13.01 0.35-13.01 0.35z"/>
		<path class="s0" d="m178.68 112.85h1.49v-17.4h-2.1v-2.37h7.08v2.37h-2.1v17.4h2.1v2.37h-6.47z"/>
		<path class="s0" d="m187.79 115.16v-2.16c0.48 0.15 0.72 0.21 1.14 0.21q1.26-0.01 1.26-1.56v-18.57h2.1l8.64 14.73q0.45 0.78 0.9 1.65v-12.15c0-2.97 0.69-4.23 3.33-4.23h0.96v2.37h-0.39c-0.9 0-1.29 0.21-1.29 1.47v18.3h-2.07l-8.76-15q-0.41-0.72-0.81-1.53v12.96c0 2.52-0.99 3.81-3.24 3.81-0.69 0-1.26-0.09-1.77-0.3z"/>
		<path class="s0" d="m149.35 115.64c5.94-3.24 10.3-8.91 11.38-12.59 0.97-3.24 0.73-5.54-0.7-6.83-1.25-1.13-3.23-1.24-5.43-0.31-1.3 0.55-2.68 1.47-3.64 2.61-1.28-1.73-3.22-3.01-4.92-3.51-1.82-0.54-3.4-0.24-4.45 0.81-1.39 1.39-1.59 3.81-0.61 7.19 1.19 4.14 5.24 9.73 5.4 10l2.07-1.83c-0.04-0.06-4.13-5.92-4.97-8.88-0.98-3.37-0.24-4.07 0-4.3 0.49-0.49 1.34-0.61 1.84-0.49 1.79 0.44 3.95 2.3 4.38 4.28l2.57-0.23c0.04-0.89 1.42-2.45 3.35-3.26 1.18-0.5 2.15-0.21 2.6 0.2 0.22 0.2 0.96 0.73 0.04 3.81-0.95 3.23-4.46 7.94-9.59 10.74l0.71 2.59z"/>
		<path class="s0" d="m208.24 105.87c0-6.18 2.93-9.72 7.61-9.72 1.07 0 2.57 0.21 3.49 0.65l-0.28 1.91c-1.02-0.39-2.34-0.59-3.23-0.59-3.18 0-4.83 2.69-4.83 7.78 0 5.09 1.84 7.48 4.79 7.48 2.95 0 4.8-2.32 4.8-6.53 0-4.21-2.03-5.56-4.68-5.43-0.64 0.03-1.1 0.04-1.55 0.17v-2.19c0.27-0.13 0.72-0.23 1.52-0.31 4.33-0.46 7.16 2.41 7.16 7.63 0 5.22-2.83 8.91-7.21 8.91-4.38 0-7.58-3.64-7.58-9.77z"/>
		<g>
			<path class="s1" d=""/>
		</g>
	</g>
</svg>