<svg id="Ebene_1" xmlns="http://www.w3.org/2000/svg" version="1.1" viewBox="58.25 15.2 164.82 100.45">
  <!-- Generator: Adobe Illustrator 30.2.1, SVG Export Plug-In . SVG Version: 2.1.1 Build 1)  -->
  <defs>
    <style>
      .st0, .st1 {
        fill: none;
      }

      .st2 {
        fill: #a6cfb3;
      }

      .st3 {
        fill: #fdc82b;
      }

      .st4 {
        fill: #1d1d1b;
      }

      .st5 {
        fill: #fff;
      }

      .st1 {
        stroke: #1d1d1b;
        stroke-linecap: round;
        stroke-linejoin: round;
      }

      .st6 {
        fill: #458893;
      }
    </style>
  </defs>
  <path class="st4" d="M64.46,111.65v-16.2h-6.18v-2.37h13.71v2.37h-4.68v15.9c0,1.17.39,1.68,1.23,1.68.42,0,.69-.03,1.2-.18v2.31c-.57.21-1.14.3-1.89.3-2.19,0-3.39-1.29-3.39-3.81Z"/>
  <path class="st4" d="M84.57,112.13l-1.83-4.74c-.96.21-1.98.33-3.09.33-.3,0-.6,0-.93-.03v7.53h-2.82v-16.17l2.82.51v5.79c.36.03.69.03.99.03,4.29,0,6.66-2.22,6.66-5.25s-1.98-4.92-5.28-4.92c-2.16,0-4.29.81-5.37,2.25l-1.44-1.89c1.47-1.74,4.02-2.73,6.84-2.73,4.89,0,8.16,3.06,8.16,7.29,0,2.73-1.44,5.04-3.99,6.36l1.8,4.68c.51,1.32.99,1.83,1.95,1.83.36,0,.78-.06,1.23-.18v2.25c-.72.27-1.41.39-1.98.39-1.92,0-2.85-1.05-3.72-3.33Z"/>
  <path class="st4" d="M93.23,108.02v-12.57h-1.68v-2.37s3.17-.49,3.96.17.6,14.68.6,14.68c0,3.6,1.29,5.16,3.96,5.16,2.82,0,3.56-1.56,3.56-5.58,0,0,.55-11.4,0-12.06s-1.68,0-1.68,0v-2.37h4.56v18.54c0,.93.18,1.44.78,1.44.33,0,.57-.06.9-.18v2.22c-.45.24-1.02.36-1.68.36-1.53,0-2.25-1.02-2.37-2.58-1.11,1.74-1.91,2.58-4.43,2.58-4.56,0-6.48-2.55-6.48-7.44Z"/>
  <path class="st4" d="M110.72,109.85c0-1.14.33-2.28.96-3.12l2.4.93c-.48.69-.66,1.32-.66,2.13,0,2.13,1.83,3.39,4.38,3.39s4.32-1.29,4.32-3.45c0-1.8-.9-2.73-2.94-3.72l-4.08-1.98c-2.64-1.29-3.96-3.09-3.96-5.7,0-3.39,2.85-5.49,6.66-5.49s6.48,2.52,6.48,5.4c0,1.08-.27,1.98-.87,2.82l-2.43-.81c.45-.63.66-1.2.66-1.98,0-1.89-1.68-3.15-3.81-3.15s-3.78,1.23-3.78,3.12c0,1.62.84,2.58,2.37,3.3l3.87,1.86c3.42,1.65,4.74,3.36,4.74,6.24,0,3.42-2.94,5.82-7.2,5.82-4.47,0-7.11-2.46-7.11-5.61Z"/>
  <path class="st4" d="M130.37,111.65v-16.2h-3.93v-2.37h12.96v2.37h-6.18v15.9c0,1.17.4,1.41,1.24,1.37,1.15-.05,3.34-1.9,3.85-2.05v2.87c-.57.21-2.31,1.92-4.56,1.92s-3.39-1.29-3.39-3.81Z"/>
  <path class="st4" d="M162.95,112.85h1.68v-17.4h-1.68v-2.37h6.57v2.37h-2.01v17.4s5.27.13,5.99-.35.18-3,.18-3h2.28s.94,4.6,0,5.37c-1.16,1.07-13.01.35-13.01.35v-2.37Z"/>
  <path class="st4" d="M178.68,112.85h1.49v-17.4h-2.1v-2.37h7.08v2.37h-2.1v17.4h2.1v2.37h-6.47v-2.37Z"/>
  <path class="st4" d="M187.79,115.16v-2.16c.48.15.72.21,1.14.21.84,0,1.26-.54,1.26-1.56v-18.57h2.1l8.64,14.73c.3.51.6,1.08.9,1.65v-12.15c0-2.97.69-4.23,3.33-4.23h.96v2.37h-.39c-.9,0-1.29.21-1.29,1.47v18.3h-2.07l-8.76-15c-.27-.48-.54-.99-.81-1.53v12.96c0,2.52-.99,3.81-3.24,3.81-.69,0-1.26-.09-1.77-.3Z"/>
  <path class="st4" d="M149.35,115.64c5.94-3.24,10.3-8.91,11.38-12.59.97-3.24.73-5.54-.7-6.83-1.25-1.13-3.23-1.24-5.43-.31-1.3.55-2.68,1.47-3.64,2.61-1.28-1.73-3.22-3.01-4.92-3.51-1.82-.54-3.4-.24-4.45.81-1.39,1.39-1.59,3.81-.61,7.19,1.19,4.14,5.24,9.73,5.4,10l2.07-1.83c-.04-.06-4.13-5.92-4.97-8.88-.98-3.37-.24-4.07,0-4.3.49-.49,1.34-.61,1.84-.49,1.79.44,3.95,2.3,4.38,4.28l2.57-.23c.04-.89,1.42-2.45,3.35-3.26,1.18-.5,2.15-.21,2.6.2.22.2.96.73.04,3.81-.95,3.23-4.46,7.94-9.59,10.74l.71,2.59Z"/>
  <path class="st4" d="M208.24,105.87c0-6.18,2.93-9.72,7.61-9.72,1.07,0,2.57.21,3.49.65l-.28,1.91c-1.02-.39-2.34-.59-3.23-.59-3.18,0-4.83,2.69-4.83,7.78s1.84,7.48,4.79,7.48,4.8-2.32,4.8-6.53-2.03-5.56-4.68-5.43c-.64.03-1.1.04-1.55.17v-2.19c.27-.13.72-.23,1.52-.31,4.33-.46,7.16,2.41,7.16,7.63s-2.83,8.91-7.21,8.91-7.58-3.64-7.58-9.77h0Z"/>
  <g>
    <path class="st0" d="M106.63,51.02c1.04,2.83,4.71,6.07,4.71,6.07,2.79-2.14,4.7-5.89,4.93-7.46.83-6.01-4.85-.61-4.85-.61,0,0-7.6-5.59-4.8,2.01Z"/>
    <path class="st4" d="M176.47,73.9c-.96-.42-2.12-.96-3.39-1.59.49-.91,1.6-3.3.52-4.82-1.67-.31-3.78,2.15-4.32,2.83-.82-.45-1.65-.92-2.49-1.41.52-.99,1.48-3.23.45-4.69-1.44-.27-3.21,1.53-4.02,2.47-.75-.49-1.48-1-2.2-1.51.72-.98,1.78-2.77,1.12-4.24-1.36-.54-3.42.88-4.4,1.65-.39-.34-.76-.69-1.12-1.03.83-.81,2.33-2.58,1.83-4.23-1.24-.69-3.38.36-4.48,1-.39-.65-.67-1.29-.83-1.92,1.22-.02,3.28-.27,4.04-1.68-.35-1.23-2.2-1.98-3.47-2.36.19-.61.37-1.21.52-1.8,1.14.15,3.48.27,4.48-1.14-.22-1.44-2.48-2.51-3.64-2.96.09-.57.16-1.11.21-1.65,1.22,0,3.29-.19,4.09-1.59-.36-1.38-2.63-2.21-3.85-2.56,0-.54,0-1.06-.02-1.52,1.11-.28,3.34-1.05,3.74-2.74-.69-1.16-2.89-1.37-4.2-1.38-.12-.52-.32-1.23-.64-2.06,1.01-.62,2.78-1.95,2.68-3.62-1.08-.99-3.53-.41-4.71-.04-1.65-2.22-4.23-4.46-8.29-5.76l-.61-.19c-5.03-1.6-5.34-1.7-7.73-.84-1.55.55-4.16,1.48-10.86,2.49-7.23,1.08-11.86,3.07-13.77,5.9-1.46,2.16-.96,4.23-.75,5.12l.05.21c.04.21.06.65.08,1.08.06,1.56.15,3.7,1.59,4.46,1.29.67,2.72-.24,3.19-.54.52-.33.98-.57,1.39-.75,1.85,7.14,8.51,7.5,12.16,7.69.9.05,1.75.09,2.1.22,1.35.49,2.01.95,1.15,5.46-.39,2.07-.89,3.91-1.43,5.72-.91-1.02-2.51-2.6-4.64-3.84-3.4-1.97-5.94-2.27-6.05-2.28-.34-.04-.67.1-.89.37-.21.27-.28.62-.17.95,0,0,.17.52.27,1.36-1.4.19-1.72.49-1.84.6-.29.27-.39.68-.27,1.05l.43,1.28c-.26.04-.55.07-.85.07-.64,0-1.15.42-1.28,1.03-.32,1.56,2.2,4.61,5.91,6.2,3.32,1.42,6.74,2.06,6.88,2.09.06.01.12.02.17.02-.36,5.06,1.64,8.79,1.77,9.04,0,0,0,0,0,0l.79.33.68.28h0s.87-.49.87-.49l-.48-.87c-.03-.05-2.75-5.08-1.24-10.68.32-1.09.64-2.11.95-3.1.89-2.83,1.73-5.51,2.35-8.77.81-4.24.66-6.6-2.44-7.72-.64-.23-1.54-.28-2.68-.33-3.37-.17-8.3-.44-10.07-5.38.12.13.25.26.4.37,5.25,4.87,11.59,2.88,15.68.65,2.51-1.37,4.17-2.84,4.22-2.88l.74-.67-1.34-1.49-.74.67c-.41.37-10.1,8.9-17.24,2.21-.03-.03-.1-.08-.13-.1-.07-.05-.13-.12-.2-.2-.48-.49-1.47-1.51-3.43-1.03-.77.19-1.62.59-2.61,1.22-.75.48-1.12.49-1.19.46-.41-.22-.49-2.13-.52-2.76-.02-.56-.04-1.04-.12-1.4l-.06-.27c-.1-.44-.24-1.04-.18-1.74.05-.55.22-1.16.65-1.79,1.09-1.61,4.12-3.8,12.41-5.04,6.9-1.03,9.61-2,11.24-2.58q1.75-.63,6.45.87l.61.19c8.66,2.75,9.71,10.36,9.76,10.73.01.08,1.35,8.08-1.91,17.02-1.59,4.35,2.12,9.5,11.02,15.3,6.37,4.15,13.24,7.19,13.31,7.22l.08.04.14.06,1.16-.76.02-.04.32-.73-.92-.4ZM129.8,62.38c-.31,1-.64,2.03-.97,3.15-.09.33-.16.65-.22.97-.03,0-.05-.02-.07-.03-.03,0-3.35-.63-6.46-1.96-2.37-1.02-3.84-2.56-4.44-3.47.83-.11,1.44-.31,1.48-.32.25-.08.46-.26.58-.5.12-.24.14-.51.05-.76l-.45-1.34c.25-.04.58-.08,1.01-.11.53-.04.94-.49.93-1.02,0-.46-.04-.88-.09-1.24.94.28,2.3.79,3.87,1.7,2.96,1.71,4.84,4.28,4.86,4.31.02.03.06.05.08.08-.06.18-.11.36-.17.55Z"/>
    <polygon class="st0" points="127.95 43.13 128.99 42.64 127.23 42.93 127.95 43.13"/>
    <path class="st0" d="M143.41,71.97c-.35-3.35.15-6.68.15-6.71l.15-.99-1.98-.3-.15.99c-.02.15-.54,3.61-.16,7.22.07.7.21,1.38.4,2.03.73.2,1.52.41,2.33.64-.34-.82-.63-1.78-.74-2.88Z"/>
    <path class="st0" d="M148.12,75.71c-.33-.21-.74-.2-1.06,0,.7.22,1.4.44,2.08.66l-1.02-.66Z"/>
    <path class="st5" d="M149.15,76.37c-.68-.23-1.38-.45-2.08-.66-.09.05-.18.12-.25.2-.03.03-.55.65-.99,1.52-.47-.44-1.15-1.33-1.68-2.58-.82-.23-1.6-.45-2.33-.64.85,2.98,2.71,5.31,4.12,5.49.07,0,.13.01.2.01.57,0,1.04-.32,1.25-.86.13-.34.3-.67.47-.93l1.46.94c.29.19.66.21.97.06.4-.19.85-.75,1.34-1.65,1.04.39,1.64.77,1.64.77.16.1.35.15.53.16-1.08-.53-2.51-1.09-4.08-1.63-.02.04-.05.09-.07.13l-.5-.32Z"/>
    <path class="st0" d="M142.63,76.31s0-.01,0-.02c0,0,0,.01,0,.02Z"/>
    <path class="st0" d="M143.14,77.22s-.02-.04-.03-.05c.01.02.02.04.03.05Z"/>
    <path class="st0" d="M142.21,75.34s-.03-.07-.04-.1c.01.03.03.07.04.1Z"/>
    <path class="st0" d="M143.71,78.05s-.05-.06-.08-.1c.03.03.05.07.08.1Z"/>
    <path class="st0" d="M144.26,78.68s-.01-.01-.02-.02c0,0,.01.01.02.02Z"/>
    <path class="st0" d="M143.75,73.71c.04.13.08.26.12.39-.04-.13-.08-.25-.12-.39Z"/>
    <path class="st0" d="M144.85,79.2s-.06-.05-.09-.07c.03.02.06.05.09.07Z"/>
    <path class="st0" d="M144.15,74.85c-.06-.13-.11-.28-.16-.42.17.46.36.88.56,1.25-.14-.26-.27-.53-.4-.83Z"/>
    <path class="st0" d="M141.6,73.31c-.01-.06-.03-.13-.04-.19.01.06.03.13.04.19Z"/>
    <path class="st0" d="M143.55,72.88c.02.11.05.22.07.32-.02-.11-.05-.21-.07-.32Z"/>
    <polygon class="st0" points="154.01 69.48 154.01 69.48 154.01 69.48 154.01 69.48"/>
    <polygon class="st0" points="154.81 72.83 154.81 72.83 154.81 72.83 154.81 72.83"/>
    <path class="st0" d="M145.06,76.51c.11.16.22.3.33.43-.11-.13-.21-.27-.33-.43Z"/>
    <path class="st0" d="M154.92,73.8s0,.03,0,.04c0-.01,0-.03,0-.04Z"/>
    <path class="st0" d="M153.44,67.94c-.06-.15-.12-.3-.18-.46.06.15.12.3.18.46h0Z"/>
    <path class="st0" d="M154.86,77.05s0,.01,0,.02c0,0,0-.01,0-.02Z"/>
    <path class="st0" d="M153.53,78.15s-.01,0-.02,0c0,0,.01,0,.02,0Z"/>
    <path class="st0" d="M154.95,76.13s0,0,0,.01c0,0,0,0,0-.01Z"/>
    <path class="st0" d="M154.81,77.31s0,.02,0,.02c0,0,0-.01,0-.02Z"/>
    <path class="st0" d="M145.45,79.55s-.06-.03-.1-.04c.03.02.06.03.1.04Z"/>
    <path class="st0" d="M144.61,75.79c.12.21.24.41.36.59-.12-.18-.24-.37-.36-.59Z"/>
    <path class="st0" d="M150.71,66.62c-.05-.11-.1-.21-.15-.32.05.1.1.21.15.32Z"/>
    <path class="st0" d="M149.48,64.09c-.04-.08-.08-.16-.12-.24.04.07.08.16.12.24Z"/>
    <path class="st0" d="M149.73,64.59c-.05-.09-.09-.18-.14-.27.04.09.09.18.14.27Z"/>
    <path class="st0" d="M150.01,65.15c-.05-.11-.1-.21-.15-.31.05.1.1.2.15.31Z"/>
    <path class="st0" d="M150.29,65.74c-.05-.11-.1-.21-.16-.32.05.11.1.21.16.32Z"/>
    <path class="st0" d="M149.21,63.57c-.05-.09-.09-.18-.14-.27.04.08.09.17.14.27Z"/>
    <path class="st0" d="M148.97,63.1s-.05-.09-.07-.13c.02.04.04.08.07.13Z"/>
    <path class="st0" d="M148.7,62.61s-.01-.02-.02-.03c0,0,.01.02.02.03Z"/>
    <path class="st0" d="M148.81,62.82s-.03-.06-.05-.08c.01.03.03.05.05.08Z"/>
    <path class="st0" d="M149.72,76.56c.07-.11.13-.23.21-.38-.08.14-.15.27-.21.38Z"/>
    <path class="st0" d="M147.82,75.59c.1.03.21.06.3.12-.1-.06-.2-.1-.3-.12Z"/>
    <polygon class="st0" points="149.15 76.37 148.12 75.71 149.65 76.69 149.15 76.37"/>
    <path class="st0" d="M147.52,75.57c.06,0,.12,0,.19,0-.06,0-.12,0-.19,0Z"/>
    <path class="st0" d="M147.23,75.64s.09-.03.13-.05c-.05.01-.09.03-.13.05Z"/>
    <path class="st0" d="M151.29,67.95c-.05-.11-.09-.22-.14-.33.05.11.1.22.14.33Z"/>
    <path class="st0" d="M151,67.29c-.05-.11-.1-.23-.15-.34.05.11.1.22.15.34Z"/>
    <path class="st0" d="M145.47,77.05c.13.15.25.28.36.38-.11-.1-.23-.23-.36-.38Z"/>
    <path class="st0" d="M151.57,68.63c-.04-.11-.09-.21-.13-.32.04.11.09.21.13.32Z"/>
    <path class="st0" d="M152.3,70.69c.07.24.14.47.19.7-.06-.23-.12-.46-.19-.7h0Z"/>
    <path class="st0" d="M149.31,78.85c.22.14.48.19.73.14-.28-.07-.57-.14-.86-.22l.12.08Z"/>
    <path class="st0" d="M142.47,75.94c.05.12.1.24.15.35,0,0,0,.01,0,.02.15.3.31.59.47.86.01.02.02.04.03.05.16.26.33.5.5.73.03.03.05.07.08.1.17.22.35.43.52.61,0,0,.01.01.02.02.17.17.34.32.51.45.03.02.06.05.09.07.17.12.33.23.5.3.03.02.06.03.1.04.17.07.33.13.49.15.07,0,.13.01.2.01.57,0,1.04-.32,1.25-.86.07-.2.16-.38.25-.55-1.48-.5-2.97-1.13-4.45-1.91-.25-.14-.49-.28-.72-.44Z"/>
    <path class="st3" d="M166.67,78.97c.59-.13,1.17-.27,1.72-.42-.24.06-.84.21-1.72.42Z"/>
    <polygon class="st3" points="149.15 76.37 148.12 75.71 149.65 76.69 149.15 76.37"/>
    <path class="st3" d="M144.22,74.99c.11.24.21.47.33.69-.11-.21-.22-.45-.33-.69Z"/>
    <polygon class="st3" points="149.19 78.78 149.19 78.78 147.85 77.91 149.19 78.78"/>
    <path class="st4" d="M149.92,60.67l-.78.43-.97.54.49.87s.02.03.03.06c0,0,.01.02.02.03.02.03.04.08.07.12.01.03.03.05.05.08.03.05.05.1.08.16.02.04.04.08.07.13.03.06.07.13.1.2.04.08.09.17.14.27.05.09.09.18.15.28.04.07.08.16.12.24.04.08.08.16.12.24.04.09.09.18.14.27.04.08.08.17.13.25.05.1.1.2.15.31.04.09.09.18.13.26.05.11.1.21.16.32.09.18.18.37.27.57.05.1.1.21.15.32.05.11.1.21.15.32.05.11.1.22.15.34.05.11.1.22.15.33.05.11.1.22.14.33.05.12.1.24.15.36.04.11.09.21.13.32.28.71.54,1.41.73,2.06.07.24.14.47.19.7.45,1.81.51,3.28.48,4.26-.43-.19-.96-.39-1.57-.57-.47-.14-.98.08-1.19.53-.1.22-.2.4-.28.57-.08.14-.15.27-.21.38-.02.04-.05.09-.07.13l-1.52-.98c-.1-.06-.2-.1-.3-.12-.04,0-.08-.01-.12-.02-.06,0-.12,0-.19,0-.05,0-.1,0-.15.02-.05.01-.09.03-.13.05-.15.06-.3.14-.41.27-.03.03-.55.65-.99,1.52-.11-.1-.23-.23-.36-.38-.03-.03-.06-.07-.09-.11-.11-.13-.21-.27-.33-.43-.03-.04-.06-.09-.09-.13-.12-.18-.24-.37-.36-.59-.02-.04-.04-.07-.06-.11-.11-.21-.22-.44-.33-.69-.08-.18-.16-.37-.23-.56-.04-.11-.08-.22-.12-.34-.04-.13-.08-.25-.12-.39-.05-.16-.09-.33-.13-.5-.02-.11-.05-.21-.07-.32-.06-.29-.11-.6-.14-.91-.35-3.35.15-6.68.15-6.71l.15-.99-1.98-.3-.15.99c-.02.15-.54,3.61-.16,7.22.03.32.09.63.14.95.01.06.03.13.04.19.14.67.33,1.32.56,1.93.01.03.03.07.04.1.13.33.27.65.42.95,0,0,0,.01,0,.02.15.3.31.59.47.86.01.02.02.04.03.05.16.26.33.5.5.73.03.03.05.07.08.1.17.22.35.43.52.61,0,0,.01.01.02.02.17.17.34.32.51.45.03.02.06.05.09.07.17.12.33.23.5.3.03.02.06.03.1.04.17.07.33.13.49.15.07,0,.13.01.2.01.57,0,1.04-.32,1.25-.86.13-.34.3-.67.47-.93l1.34.86.12.08c.29.19.66.21.97.06.4-.19.85-.75,1.34-1.65,1.04.39,1.64.77,1.64.77.08.05.16.09.25.11,0,0,.01,0,.02,0,.21.06.44.06.65-.03.3-.12.53-.38.6-.7,0,0,0-.04.02-.09,0,0,0-.01,0-.02.01-.06.03-.14.04-.24,0,0,0-.01,0-.02.03-.22.07-.52.1-.91,0,0,0,0,0-.01.04-.59.05-1.36-.03-2.29,0-.01,0-.03,0-.04-.03-.31-.06-.63-.11-.97,0,0,0,0,0,0-.08-.59-.2-1.23-.37-1.91-.11-.46-.26-.94-.43-1.44,0,0,0,0,0,0-.17-.51-.36-1.02-.57-1.54-.06-.15-.12-.3-.18-.46-1.21-2.95-2.77-5.77-2.86-5.93l-.48-.87Z"/>
    <path class="st5" d="M111.42,49.01s-7.6-5.59-4.8,2.01c1.04,2.83,4.71,6.07,4.71,6.07,2.79-2.14,4.7-5.89,4.93-7.46.83-6.01-4.85-.61-4.85-.61Z"/>
    <path class="st3" d="M111.75,55.73c-.99-1.03-3.65-4.15-4.05-6.1l-.15-.73-1.45.3.14.74c.58,2.78,4.28,6.67,4.44,6.83l.52.54,1.08-1.04-.52-.54Z"/>
    <path class="st5" d="M119.27,41.15c-.15-.11-.28-.24-.4-.37,1.77,4.94,6.7,5.2,10.07,5.38,1.14.06,2.05.1,2.68.33,3.09,1.12,3.25,3.48,2.44,7.72-.62,3.25-1.46,5.93-2.35,8.77-.31.99-.63,2.01-.95,3.1-1.51,5.59,1.21,10.63,1.24,10.68l.48.87-.95.53s0,0,0,0c0,0,7.37,4.48,20.69,3,.35-.04.67-.08.96-.13-6.3.4-12.71-.21-15.25-3.74-4.34-6.04-2.16-15.26-2.16-15.26,0,0,2.08-8.73,1.66-13.58-.3-3.56-1.74-5.74-2.49-6.65-4.09,2.24-10.43,4.22-15.68-.65Z"/>
    <path class="st6" d="M136.64,29.25c.29.53.76.88,1.3.88s.98-.33,1.28-.84"/>
    <path class="st1" d="M147.5,37.39"/>
    <path class="st3" d="M175.67,75.73c-.07-.03-6.94-3.07-13.31-7.22-8.9-5.8-12.6-10.95-11.02-15.3,3.26-8.94,1.92-16.94,1.91-17.02-.05-.37-1.09-7.98-9.76-10.73l-.61-.19q-4.69-1.49-6.45-.87c-1.62.58-4.34,1.55-11.24,2.58-8.28,1.24-11.32,3.43-12.41,5.04-.43.63-.6,1.24-.65,1.79.42-.12,1.01-.29,1.71-.49-.01-.09-.02-.18-.02-.27,0-.93.56-1.68,1.26-1.68.59,0,1.09.55,1.22,1.3,5.13-1.33,13.27-3.17,19.84-3.4.02-.37.08-.73.17-1.07,0-.08-.02-.16-.02-.25,0-1.21.73-2.19,1.63-2.19.1,0,.2.02.3.04.36-.17.75-.27,1.16-.27,1.8,0,3.26,1.75,3.26,3.91,0,.14-.02.27-.03.4,2.61.84,4.02,2.61,4.74,4.59-.98.3-2.4.66-3.24.54-.41-.06-.79.23-.85.64-.06.41.23.79.64.85.18.03.37.04.57.04,1.09,0,2.41-.34,3.28-.61.17.81.24,1.62.26,2.4-.8.2-1.65.34-2.23.26-.41-.06-.79.23-.85.64s.23.79.64.85c.18.03.37.04.57.04.58,0,1.23-.1,1.84-.23-.12,1.95-.51,3.39-.51,3.39,0,0-2.21,8.68,1.64,17.89l.78-.43.48.87c.09.16,1.65,2.98,2.86,5.93.1.11.21.21.31.32.48-.5.89-.98,1.1-1.25.25-.33.73-.39,1.05-.13.33.25.39.73.13,1.05-.1.13-.58.74-1.24,1.41.56.55,1.14,1.08,1.73,1.59.69-.65,1.33-1.39,1.62-1.76.25-.33.73-.39,1.05-.13.33.25.38.73.13,1.05-.12.15-.79,1-1.65,1.81.66.54,1.33,1.06,1.99,1.55.91-.7,1.89-1.84,2.27-2.33.25-.33.73-.39,1.05-.13.33.25.39.73.13,1.05-.14.18-1.1,1.38-2.2,2.31.75.52,1.49,1.01,2.18,1.45,1.06-.92,2.17-2.34,2.61-2.96.24-.34.71-.42,1.05-.18.34.24.42.71.18,1.05-.16.23-1.25,1.73-2.51,2.91,2.48,1.5,4.24,2.34,4.26,2.34,3.54-.95,6.17-2.11,7.38-2.69l-.23-.1Z"/>
    <path class="st0" d="M106.63,51.02c1.04,2.83,4.71,6.07,4.71,6.07,2.79-2.14,4.7-5.89,4.93-7.46.83-6.01-4.85-.61-4.85-.61,0,0-7.6-5.59-4.8,2.01Z"/>
    <path class="st6" d="M119.13,60.73s-.65.21-1.48.32c.59.9,2.06,2.45,4.44,3.47,3.11,1.33,6.42,1.95,6.46,1.96.03,0,.05.02.07.03.06-.32.13-.65.22-.97.33-1.12.66-2.15.97-3.15.06-.18.11-.36.17-.55-.03-.03-.06-.04-.08-.08-.02-.03-1.9-2.59-4.86-4.31-1.56-.91-2.92-1.42-3.87-1.7.05.37.08.78.09,1.24.01.53-.4.98-.93,1.02-.43.03-.76.07-1.01.11l.45,1.34c.08.25.06.53-.05.76-.12.24-.33.42-.58.5Z"/>
    <path class="st0" d="M106.63,51.02c1.04,2.83,4.71,6.07,4.71,6.07,2.79-2.14,4.7-5.89,4.93-7.46.83-6.01-4.85-.61-4.85-.61,0,0-7.6-5.59-4.8,2.01Z"/>
    <path class="st4" d="M139.4,25.53c-.41,0-.8.1-1.16.27.76.19,1.33,1.08,1.33,2.14,0,.51-.14.97-.35,1.35-.3.51-.76.84-1.28.84s-1-.35-1.3-.88c-.17-.3-.28-.66-.31-1.06-.1.34-.15.7-.17,1.07,0,.06-.01.12-.01.18,0,2.16,1.46,3.91,3.26,3.91,1.69,0,3.06-1.54,3.22-3.51.01-.13.03-.26.03-.4,0-2.16-1.46-3.91-3.26-3.91Z"/>
    <path class="st0" d="M106.63,51.02c1.04,2.83,4.71,6.07,4.71,6.07,2.79-2.14,4.7-5.89,4.93-7.46.83-6.01-4.85-.61-4.85-.61,0,0-7.6-5.59-4.8,2.01Z"/>
    <path class="st0" d="M106.63,51.02c1.04,2.83,4.71,6.07,4.71,6.07,2.79-2.14,4.7-5.89,4.93-7.46.83-6.01-4.85-.61-4.85-.61,0,0-7.6-5.59-4.8,2.01Z"/>
    <path class="st5" d="M137.94,30.13c.9,0,1.63-.98,1.63-2.19,0-1.07-.57-1.96-1.33-2.14-.1-.02-.2-.04-.3-.04-.9,0-1.63.98-1.63,2.19,0,.09.01.17.02.25.09,1.09.77,1.94,1.61,1.94Z"/>
    <path class="st6" d="M164.26,76.18c1.26-1.18,2.34-2.68,2.51-2.91.24-.34.16-.81-.18-1.05-.34-.24-.8-.16-1.05.18-.44.61-1.55,2.04-2.61,2.96-.7-.44-1.43-.93-2.18-1.45,1.1-.93,2.05-2.13,2.2-2.31.25-.33.2-.8-.13-1.05-.33-.25-.8-.2-1.05.13-.38.49-1.36,1.63-2.27,2.33-.66-.49-1.33-1.01-1.99-1.55.85-.82,1.53-1.66,1.65-1.81.25-.33.2-.8-.13-1.05-.33-.26-.8-.2-1.05.13-.29.37-.93,1.12-1.62,1.76-.59-.51-1.17-1.04-1.73-1.59.65-.67,1.14-1.28,1.24-1.41.25-.33.2-.8-.13-1.05-.33-.26-.8-.2-1.05.13-.21.27-.62.76-1.1,1.25-.1-.11-.21-.21-.31-.32.06.15.12.3.18.46.21.52.4,1.04.57,1.54,0,0,0,0,0,0,.17.5.32.98.43,1.44.17.68.29,1.32.37,1.91,0,0,0,0,0,0,.05.34.08.66.11.97,0,.01,0,.03,0,.04.08.93.07,1.7.03,2.29,0,0,0,0,0,.01-.03.39-.06.69-.1.91,0,0,0,.01,0,.02-.02.1-.03.18-.04.24,0,.01,0,.01,0,.02,0,.05-.02.08-.02.09-.08.32-.3.58-.6.7-.21.08-.44.09-.65.03,0,0-.01,0-.02,0-.09-.03-.17-.06-.25-.11,0,0-.6-.38-1.64-.77-.49.91-.94,1.46-1.34,1.65-.08.04-.16.06-.24.08-.25.05-.51,0-.73-.14l-.12-.08-1.34-.86c-.07.12-.14.25-.21.38-.09.17-.18.36-.25.55-.2.54-.68.86-1.25.86-.06,0-.13,0-.2-.01-.16-.02-.32-.08-.49-.15-.03-.01-.06-.03-.1-.04-.16-.08-.33-.18-.5-.3-.03-.02-.06-.05-.09-.07-.17-.13-.34-.28-.51-.45,0,0-.01-.01-.02-.02-.18-.18-.35-.39-.52-.61-.03-.03-.05-.06-.08-.1-.17-.23-.34-.47-.5-.73-.01-.02-.02-.04-.03-.05-.17-.27-.32-.56-.47-.86,0,0,0-.01,0-.02-.06-.11-.1-.24-.15-.35-.09-.2-.18-.39-.26-.6-.01-.03-.03-.07-.04-.1-.23-.61-.42-1.26-.56-1.93-.01-.06-.03-.13-.04-.19-.06-.31-.11-.63-.14-.95-.38-3.61.14-7.08.16-7.22l.15-.99,1.98.3-.15.99s-.5,3.36-.15,6.71c.03.32.08.62.14.91.02.11.05.22.07.32.04.17.08.34.13.5.04.13.08.26.12.39.04.12.08.23.12.34.05.14.1.28.16.42.13.3.26.57.4.83.02.04.04.07.06.11.12.21.24.41.36.59.03.04.06.09.09.13.11.16.22.3.33.43.03.04.06.08.09.11.13.15.25.28.36.38.45-.87.96-1.49.99-1.52.11-.13.26-.22.41-.27.04-.02.09-.03.13-.05.05-.01.1-.02.15-.02.06,0,.12,0,.19,0,.04,0,.08,0,.12.02.1.02.21.06.3.12l1.02.66.5.32s.05-.09.07-.13c.06-.11.14-.24.21-.38.09-.17.18-.35.28-.57.21-.45.72-.68,1.19-.53.61.18,1.13.38,1.57.57.03-.98-.03-2.45-.48-4.26-.06-.23-.12-.46-.19-.7-.2-.65-.45-1.36-.73-2.06-.04-.11-.09-.21-.13-.32-.05-.12-.1-.24-.15-.36-.05-.11-.09-.22-.14-.33-.05-.11-.1-.22-.15-.33-.05-.11-.1-.23-.15-.34-.05-.11-.1-.22-.15-.32-.05-.11-.1-.21-.15-.32-.09-.19-.18-.38-.27-.57-.05-.11-.1-.22-.16-.32-.04-.09-.09-.18-.13-.26-.05-.11-.1-.21-.15-.31-.04-.09-.08-.17-.13-.25-.05-.09-.09-.18-.14-.27-.04-.08-.08-.16-.12-.24-.04-.08-.08-.16-.12-.24-.05-.1-.1-.19-.15-.28-.05-.09-.1-.18-.14-.27-.04-.07-.07-.14-.1-.2-.02-.05-.05-.09-.07-.13-.03-.06-.06-.11-.08-.16-.02-.03-.03-.06-.05-.08-.03-.05-.05-.09-.07-.12,0-.01-.01-.03-.02-.03-.02-.03-.03-.05-.03-.06l-.49-.87.97-.54c-3.85-9.21-1.64-17.89-1.64-17.89,0,0,2.96-10.84-4.87-13.37-.17,1.97-1.54,3.51-3.22,3.51-1.8,0-3.26-1.75-3.26-3.91,0-.06.01-.12.01-.18-6.57.23-14.72,2.07-19.84,3.4.02.12.04.25.04.39,0,.93-.56,1.68-1.26,1.68-.62,0-1.14-.61-1.24-1.41-.7.2-1.29.36-1.71.49-.06.7.08,1.3.18,1.74l.06.26h0c.08.37.1.85.12,1.41.03.63.1,2.55.52,2.76.07.04.43.03,1.19-.46.98-.63,1.84-1.03,2.61-1.22,1.97-.48,2.96.54,3.43,1.03.07.08.14.15.2.2.03.02.1.08.13.1,5.08,4.76,11.45,1.81,14.85-.42,1.38-.9,2.27-1.69,2.39-1.79l.74-.67,1.34,1.49-.47.42-.27.25s-1.71,1.51-4.22,2.88c.75.92,2.19,3.1,2.49,6.65.42,4.86-1.66,13.58-1.66,13.58,0,0-2.18,9.22,2.16,15.26,2.54,3.54,8.95,4.14,15.25,3.74,5.43-.35,10.77-1.44,13.49-2.07.88-.2,1.48-.35,1.72-.42.08-.02.13-.03.13-.03,0,0,0,0,0,0-.01,0-1.77-.85-4.26-2.34Z"/>
    <path class="st2" d="M178.4,50.67c-4.34-8.02-8.14-5.84-10.7-15.94-2.31-9.11-3.45-19.37-14.42-19.37-11.78,0-26.84-1.19-36.93,3.68-10.41,5.02-19.05,10.18-16.18,22.53,2.13,9.15,1.63,22.62,14.93,28.8,5.32,2.47,10.23,5.08,15.03,7.13-.14-.25-2.14-3.98-1.77-9.04-.06,0-.11,0-.17-.02-.14-.03-3.56-.66-6.88-2.09-3.72-1.59-6.23-4.64-5.91-6.2.13-.62.64-1.03,1.28-1.03.3,0,.59-.03.85-.07l-.43-1.28c-.12-.37-.02-.78.27-1.05.12-.11.44-.41,1.84-.6-.09-.84-.26-1.36-.27-1.36-.11-.32-.05-.68.17-.95.21-.27.54-.41.89-.37.11.01,2.64.31,6.05,2.28,2.13,1.23,3.73,2.81,4.64,3.84.54-1.81,1.03-3.65,1.43-5.72.86-4.51.2-4.97-1.15-5.46-.35-.13-1.2-.17-2.1-.22-3.65-.19-10.3-.54-12.16-7.69-.42.17-.88.42-1.39.75-.47.3-1.9,1.22-3.19.54-1.44-.75-1.53-2.89-1.59-4.46-.02-.43-.04-.87-.08-1.08l-.05-.21c-.21-.88-.71-2.95.75-5.12,1.91-2.83,6.54-4.81,13.77-5.9,6.71-1.01,9.31-1.93,10.86-2.49,2.39-.85,2.69-.76,7.73.84l.61.19c4.06,1.29,6.64,3.53,8.29,5.76,1.18-.36,3.64-.95,4.71.04.09,1.67-1.67,2.99-2.68,3.62.32.83.53,1.55.64,2.06,1.31.02,3.51.22,4.2,1.38-.4,1.69-2.63,2.46-3.74,2.74.02.46.02.98.02,1.52,1.22.35,3.49,1.18,3.85,2.56-.79,1.4-2.87,1.6-4.09,1.59-.06.53-.13,1.08-.21,1.65,1.16.46,3.42,1.52,3.64,2.96-1,1.41-3.34,1.3-4.48,1.14-.16.59-.33,1.19-.52,1.8,1.27.38,3.12,1.13,3.47,2.36-.76,1.41-2.82,1.66-4.04,1.68.17.63.44,1.27.83,1.92,1.1-.64,3.24-1.69,4.48-1,.5,1.65-1.01,3.42-1.83,4.23.35.34.73.69,1.12,1.03.98-.77,3.04-2.18,4.4-1.65.66,1.47-.4,3.26-1.12,4.24.71.51,1.45,1.02,2.2,1.51.81-.94,2.58-2.74,4.02-2.47,1.03,1.45.07,3.69-.45,4.69.84.49,1.67.96,2.49,1.41.55-.68,2.66-3.15,4.32-2.83,1.08,1.52-.03,3.91-.52,4.82,1.27.63,2.43,1.17,3.39,1.59l.92.4-.32.73c7.89-4.76,6.75-14.33,1.33-24.35ZM111.42,49.01s5.67-5.39,4.85.61c-.23,1.57-2.14,5.32-4.93,7.46,0,0-3.67-3.24-4.71-6.07-2.81-7.6,4.8-2.01,4.8-2.01Z"/>
    <path class="st4" d="M115.1,34.74c.69,0,1.26-.75,1.26-1.68,0-.13-.01-.26-.04-.39-.13-.74-.63-1.3-1.22-1.3-.69,0-1.26.75-1.26,1.68,0,.09,0,.18.02.27.1.8.61,1.41,1.24,1.41Z"/>
  </g>
</svg>